<svg xmlns="http://www.w3.org/2000/svg" width="58" height="58.264" viewBox="0 0 58 58.264">
  <g id="Group_2" data-name="Group 2" transform="translate(-740 -433)">
    <g id="Group_1" data-name="Group 1" transform="translate(-5.062 -79)">
      <path id="Path_95" data-name="Path 95" d="M337.668,384.152l-3.048,3.873a17.221,17.221,0,0,1-5.316,31.857l-4.045,5.139c.25.008.483.074.735.074a22.122,22.122,0,0,0,11.674-40.943Z" transform="translate(448.795 132.842)" fill="#41a742"/>
      <path id="Path_96" data-name="Path 96" d="M319.648,398.932a2.446,2.446,0,0,0,2.627-.826l8.181-10.4a17.175,17.175,0,0,0-2.32-.72l-7.98,10.14a2.448,2.448,0,0,0-.508,1.806Z" transform="translate(450.223 131.963)"/>
      <path id="Path_97" data-name="Path 97" d="M313.748,439.921l.416-1.855Z" transform="translate(451.9 115.997)" fill="#910b2a"/>
      <path id="Path_98" data-name="Path 98" d="M316.39,379.236A22.169,22.169,0,0,0,294.221,401.4c0,6.592,2.707,13.965,8.953,18.083l1.251-5.572A16.458,16.458,0,0,1,299.1,401.4a17.288,17.288,0,0,1,17.288-17.288c.285,0,.549.07.83.084l3.558-4.521a22.24,22.24,0,0,0-4.386-.439Z" transform="translate(457.74 134.363)" fill="#41a742"/>
      <path id="Path_99" data-name="Path 99" d="M303.1,457.992a2.445,2.445,0,0,0,4.555-.607l.723-3.219-2.444,3.105a2.423,2.423,0,0,1-2.834.721Z" transform="translate(454.994 110.959)" fill="#41a742"/>
      <path id="Path_100" data-name="Path 100" d="M311.056,435.4l.743-3.313a14.147,14.147,0,0,1-4.44-2.633l-1.251,5.572L303.7,445.75l7.352-10.337Z" transform="translate(454.807 118.605)" fill="#41a742"/>
      <path id="Path_101" data-name="Path 101" d="M311.07,435.912l-7.688,11.836-.654,2.914a1.618,1.618,0,1,0,3.07.961l2.444-3.105,2.079-9.263Z" transform="translate(455.126 116.607)" fill="#206b2e"/>
      <path id="Path_102" data-name="Path 102" d="M330.521,403.387v-.049q0-2.45-2.557-2.448H314.1l7.573-9.581h.006l2.666-3.374,5.143-6.507a.015.015,0,0,1,.006-.012l.132-.167a2.412,2.412,0,0,0-.213-3.2,1.878,1.878,0,0,0-.126-.148c-.029-.024-.041-.059-.071-.083a2.359,2.359,0,0,0-.591-.3c-.037-.013-.061-.038-.1-.05a2.427,2.427,0,0,0-1.145-.15H327l-.151.17a2.389,2.389,0,0,0-1.077.737l-7.948,10.062a2.354,2.354,0,0,0-.153.3l-10.308,13.088a2.176,2.176,0,0,0-.311.619c-.006.015-.014.025-.02.039a3.177,3.177,0,0,0-.158,1.01c0,.01,0,.015,0,.025v.024q0,2.45,2.557,2.448H323.3l-6,7.588a2.358,2.358,0,0,0-.37.314l-13.848,17.534a2.451,2.451,0,0,0,3.858,3.025l7.294-9.234.472-.536,15.333-19.467a2.194,2.194,0,0,0,.311-.619c0-.015.015-.026.019-.04a3.177,3.177,0,0,0,.156-1.014Z" transform="translate(455.163 134.964)" fill="#7bb94c"/>
    </g>
    <g id="Rectangle_1" data-name="Rectangle 1" transform="translate(740 433)" fill="rgba(255,255,255,0)" stroke="rgba(112,112,112,0)" stroke-width="1">
      <rect width="58" height="58" rx="5" stroke="none"/>
      <rect x="0.5" y="0.5" width="57" height="57" rx="4.5" fill="none"/>
    </g>
  </g>
</svg>
