<svg xmlns="http://www.w3.org/2000/svg" width="44.341" height="58.218" viewBox="0 0 44.341 58.218">
  <g id="Group_1" data-name="Group 1" transform="translate(-751.961 -512.264)">
    <path id="Path_95" data-name="Path 95" d="M337.668,384.152l-3.048,3.873a17.221,17.221,0,0,1-5.316,31.857l-4.045,5.139c.25.008.483.074.735.074a22.122,22.122,0,0,0,11.674-40.943Z" transform="translate(448.136 132.842)" fill="#41a742"/>
    <path id="Path_96" data-name="Path 96" d="M319.648,398.932a2.446,2.446,0,0,0,2.627-.826l8.181-10.4a17.175,17.175,0,0,0-2.32-.72l-7.98,10.14a2.448,2.448,0,0,0-.508,1.806Z" transform="translate(449.878 131.963)"/>
    <path id="Path_97" data-name="Path 97" d="M313.748,439.921l.416-1.855Z" transform="translate(451.698 116.16)" fill="#910b2a"/>
    <path id="Path_98" data-name="Path 98" d="M316.39,379.236A22.169,22.169,0,0,0,294.221,401.4c0,6.592,2.707,13.965,8.953,18.083l1.251-5.572A16.458,16.458,0,0,1,299.1,401.4a17.288,17.288,0,0,1,17.288-17.288c.285,0,.549.07.83.084l3.558-4.521a22.24,22.24,0,0,0-4.386-.439Z" transform="translate(457.74 134.363)" fill="#41a742"/>
    <path id="Path_99" data-name="Path 99" d="M303.1,457.992a2.445,2.445,0,0,0,4.555-.607l.723-3.219-2.444,3.105a2.423,2.423,0,0,1-2.834.721Z" transform="translate(454.994 111.178)" fill="#41a742"/>
    <path id="Path_100" data-name="Path 100" d="M311.056,435.4l.743-3.313a14.147,14.147,0,0,1-4.44-2.633l-1.251,5.572L303.7,445.75l7.352-10.337Z" transform="translate(454.807 118.824)" fill="#41a742"/>
    <path id="Path_101" data-name="Path 101" d="M311.07,435.912l-7.688,11.836-.654,2.914a1.618,1.618,0,1,0,3.07.961l2.444-3.105,2.079-9.263Z" transform="translate(455.126 116.826)" fill="#206b2e"/>
    <path id="Path_102" data-name="Path 102" d="M330.521,403.485v-.049q0-2.459-2.557-2.457H314.1l7.573-9.617h.006l2.666-3.387,5.143-6.532a.016.016,0,0,1,.006-.012l.132-.168a2.428,2.428,0,0,0-.213-3.215,1.886,1.886,0,0,0-.126-.149c-.029-.024-.041-.059-.071-.083a2.355,2.355,0,0,0-.591-.3c-.037-.013-.061-.038-.1-.05a2.419,2.419,0,0,0-1.145-.151H327l-.151.171a2.389,2.389,0,0,0-1.077.74l-7.948,10.1a2.366,2.366,0,0,0-.153.3l-10.308,13.137a2.187,2.187,0,0,0-.311.621c-.006.015-.014.025-.02.039a3.2,3.2,0,0,0-.158,1.014c0,.01,0,.015,0,.025v.024q0,2.459,2.557,2.457H323.3l-6,7.617a2.362,2.362,0,0,0-.37.315l-13.848,17.6a2.455,2.455,0,1,0,3.858,3.036l7.294-9.269.472-.538,15.333-19.54a2.205,2.205,0,0,0,.311-.621c0-.015.015-.026.019-.04a3.2,3.2,0,0,0,.156-1.018Z" transform="translate(455.163 134.964)" fill="#7bb94c"/>
  </g>
</svg>
