<svg xmlns="http://www.w3.org/2000/svg" width="301.691" height="60.084" viewBox="0 0 301.691 60.084">
  <g id="Group_1" data-name="Group 1" transform="translate(-619.944 -510.398)">
    <g id="Group_54" data-name="Group 54" transform="translate(619.948 510.398)">
      <path id="Path_86" data-name="Path 86" d="M126.19,388.5a13.428,13.428,0,0,1,5,5.2,15.109,15.109,0,0,1,1.822,7.393,14.271,14.271,0,0,1-1.958,7.393,14.02,14.02,0,0,1-5.41,5.224,15.526,15.526,0,0,1-7.638,1.907,15.216,15.216,0,0,1-7.585-1.907,14.327,14.327,0,0,1-5.383-5.224,14.122,14.122,0,0,1-1.984-7.393V377.266a2.514,2.514,0,0,1,.788-1.933,3.1,3.1,0,0,1,4,0,2.561,2.561,0,0,1,.761,1.933v14.106a13.257,13.257,0,0,1,4.621-3.5,13.851,13.851,0,0,1,5.872-1.254,13.684,13.684,0,0,1,7.094,1.882Zm-3.262,21.133a9.338,9.338,0,0,0,3.48-3.526,9.972,9.972,0,0,0,1.278-5.016,9.833,9.833,0,0,0-1.278-4.989,9.409,9.409,0,0,0-3.48-3.5,10.1,10.1,0,0,0-9.841,0,9.2,9.2,0,0,0-3.453,3.5,9.985,9.985,0,0,0-1.251,4.989,10.127,10.127,0,0,0,1.251,5.016,9.138,9.138,0,0,0,3.453,3.526,10.09,10.09,0,0,0,9.841,0Z" transform="translate(-103.056 -374.602)" fill="#353535"/>
      <path id="Path_87" data-name="Path 87" d="M184.666,392.961a2.56,2.56,0,0,1,.761,1.933v23.3a2.581,2.581,0,0,1-.761,1.907,3.016,3.016,0,0,1-4,0,2.533,2.533,0,0,1-.788-1.907v-.575a12.152,12.152,0,0,1-4.132,2.586,15.054,15.054,0,0,1-11.852-.653,11.255,11.255,0,0,1-4.676-4.571,14.569,14.569,0,0,1-1.686-7.236V394.894a2.533,2.533,0,0,1,.789-1.907,2.976,2.976,0,0,1,3.969,0,2.534,2.534,0,0,1,.789,1.907v12.852q0,4.232,2.365,6.4a8.926,8.926,0,0,0,6.279,2.168,9.581,9.581,0,0,0,4.159-.888,7.294,7.294,0,0,0,2.936-2.4,5.782,5.782,0,0,0,1.061-3.4V394.894a2.513,2.513,0,0,1,.788-1.933,3.093,3.093,0,0,1,4,0Z" transform="translate(-119.914 -380.056)" fill="#353535"/>
      <path id="Path_88" data-name="Path 88" d="M233.535,418.428q0,2.456-2.556,2.455h-18.54q-2.556,0-2.555-2.455a2.645,2.645,0,0,1,.489-1.672l15.387-19.54H211.9q-2.557,0-2.556-2.456T211.9,392.3h18.54q2.554,0,2.555,2.456a2.643,2.643,0,0,1-.489,1.672l-15.332,19.54h13.809Q233.535,415.972,233.535,418.428Z" transform="translate(-135.943 -380.08)" fill="#353535"/>
      <path id="Path_89" data-name="Path 89" d="M276.049,418.428q0,2.456-2.556,2.455h-18.54q-2.555,0-2.555-2.455a2.641,2.641,0,0,1,.49-1.672l15.386-19.54H254.41q-2.556,0-2.556-2.456t2.556-2.456h18.54q2.555,0,2.556,2.456a2.644,2.644,0,0,1-.49,1.672l-15.332,19.54h13.809Q276.049,415.972,276.049,418.428Z" transform="translate(-149.098 -380.08)" fill="#353535"/>
    </g>
    <g id="Group_55" data-name="Group 55" transform="translate(798.269 510.398)">
      <path id="Path_90" data-name="Path 90" d="M379.41,412.317a2.653,2.653,0,0,1,.68,1.88,2.316,2.316,0,0,1-.9,1.881,3.538,3.538,0,0,1-2.311.731H375.9a9.221,9.221,0,0,1-4.866-1.332,9.419,9.419,0,0,1-3.453-3.631,10.637,10.637,0,0,1-1.25-5.172v-12.9h-2.5a2.682,2.682,0,0,1-1.849-.627,2.007,2.007,0,0,1-.707-1.568,2.125,2.125,0,0,1,.707-1.672,2.682,2.682,0,0,1,1.849-.627h2.5v-7.523a2.493,2.493,0,0,1,.761-1.88,2.982,2.982,0,0,1,3.914,0,2.493,2.493,0,0,1,.762,1.88v7.523h4.621a2.683,2.683,0,0,1,1.849.627,2.129,2.129,0,0,1,.706,1.672,2.011,2.011,0,0,1-.706,1.568,2.683,2.683,0,0,1-1.849.627h-4.621v12.9a5.223,5.223,0,0,0,1.2,3.5,3.7,3.7,0,0,0,2.936,1.411h1.849a2.178,2.178,0,0,1,1.657.732Z" transform="translate(-361.278 -376.006)" fill="#353535"/>
      <path id="Path_91" data-name="Path 91" d="M417.444,392.687q1.63.836,1.63,2.09a1.783,1.783,0,0,1-.054.523,2.088,2.088,0,0,1-2.175,1.672,4.673,4.673,0,0,1-.816-.1,22.372,22.372,0,0,0-3.534-.366,10.556,10.556,0,0,0-6.307,1.724,5.441,5.441,0,0,0-2.392,4.65v15.25a2.614,2.614,0,0,1-.68,1.934,2.771,2.771,0,0,1-2.039.679,2.853,2.853,0,0,1-2.012-.653,2.539,2.539,0,0,1-.707-1.96V394.777a2.553,2.553,0,0,1,.707-1.933,2.788,2.788,0,0,1,2.012-.68q2.718,0,2.718,2.612v.992a11.465,11.465,0,0,1,4.024-2.874,12.629,12.629,0,0,1,5.11-1.045,10.032,10.032,0,0,1,4.515.838Z" transform="translate(-372.752 -379.939)" fill="#353535"/>
      <path id="Path_92" data-name="Path 92" d="M437.29,381.463a3.313,3.313,0,0,1,0-4.859,3.645,3.645,0,0,1,5.056,0,3.314,3.314,0,0,1,0,4.859A3.647,3.647,0,0,1,437.29,381.463Zm.544,33.489a2.531,2.531,0,0,1-.789-1.907V389.8a2.512,2.512,0,0,1,.789-1.934,3.1,3.1,0,0,1,4,0,2.561,2.561,0,0,1,.76,1.934v23.249a2.58,2.58,0,0,1-.76,1.907,3.016,3.016,0,0,1-4,0Z" transform="translate(-384.47 -374.906)" fill="#353535"/>
      <path id="Path_93" data-name="Path 93" d="M483.451,413.211a2.389,2.389,0,0,1-.979,1.934,2.81,2.81,0,0,1-1.74.626,2.4,2.4,0,0,1-1.957-.941l-10.33-12.278-2.719,2.3v7.993a2.453,2.453,0,0,1-.734,1.855,3,3,0,0,1-3.86,0,2.456,2.456,0,0,1-.734-1.855V377.162a2.455,2.455,0,0,1,.734-1.854,2.992,2.992,0,0,1,3.86,0,2.452,2.452,0,0,1,.734,1.854v21.264l13.211-11.337a2.351,2.351,0,0,1,1.686-.68,2.3,2.3,0,0,1,1.848.836,2.229,2.229,0,0,1-.163,3.4l-10,8.568,10.547,12.434a2.185,2.185,0,0,1,.6,1.564Z" transform="translate(-391.949 -374.602)" fill="#353535"/>
      <path id="Path_94" data-name="Path 94" d="M526.566,407.7a2.541,2.541,0,0,1-1.794.653H504.111a9.121,9.121,0,0,0,3.453,5.9,11.419,11.419,0,0,0,10.384,1.672,10.276,10.276,0,0,0,2.909-1.41,2.9,2.9,0,0,1,1.795-.575,2.4,2.4,0,0,1,1.63.523,2.258,2.258,0,0,1,.979,1.776,1.873,1.873,0,0,1-.87,1.568,15.255,15.255,0,0,1-4.594,2.3,17.223,17.223,0,0,1-13.239-.966A13.765,13.765,0,0,1,501.04,414a14.185,14.185,0,0,1-1.985-7.471,14.973,14.973,0,0,1,1.876-7.5,13.3,13.3,0,0,1,5.219-5.172A15.377,15.377,0,0,1,513.734,392a14.109,14.109,0,0,1,7.232,1.777,11.9,11.9,0,0,1,4.676,4.963,15.84,15.84,0,0,1,1.631,7.315,2.148,2.148,0,0,1-.707,1.645Zm-19.275-9.117a9.286,9.286,0,0,0-3.126,5.59h18.1a9.115,9.115,0,0,0-2.719-5.59,8.166,8.166,0,0,0-5.817-2.09,9.649,9.649,0,0,0-6.438,2.092Z" transform="translate(-403.91 -379.986)" fill="#353535"/>
    </g>
    <path id="Path_95" data-name="Path 95" d="M337.668,384.152l-3.048,3.873a17.221,17.221,0,0,1-5.316,31.857l-4.045,5.139c.25.008.483.074.735.074a22.122,22.122,0,0,0,11.674-40.943Z" transform="translate(448.136 132.842)" fill="#41a742"/>
    <path id="Path_96" data-name="Path 96" d="M319.648,398.932a2.446,2.446,0,0,0,2.627-.826l8.181-10.4a17.175,17.175,0,0,0-2.32-.72l-7.98,10.14a2.448,2.448,0,0,0-.508,1.806Z" transform="translate(449.878 131.963)"/>
    <path id="Path_97" data-name="Path 97" d="M313.748,439.921l.416-1.855Z" transform="translate(451.698 116.16)" fill="#910b2a"/>
    <path id="Path_98" data-name="Path 98" d="M316.39,379.236A22.169,22.169,0,0,0,294.221,401.4c0,6.592,2.707,13.965,8.953,18.083l1.251-5.572A16.458,16.458,0,0,1,299.1,401.4a17.288,17.288,0,0,1,17.288-17.288c.285,0,.549.07.83.084l3.558-4.521a22.24,22.24,0,0,0-4.386-.439Z" transform="translate(457.74 134.363)" fill="#41a742"/>
    <path id="Path_99" data-name="Path 99" d="M303.1,457.992a2.445,2.445,0,0,0,4.555-.607l.723-3.219-2.444,3.105a2.423,2.423,0,0,1-2.834.721Z" transform="translate(454.994 111.178)" fill="#41a742"/>
    <path id="Path_100" data-name="Path 100" d="M311.056,435.4l.743-3.313a14.147,14.147,0,0,1-4.44-2.633l-1.251,5.572L303.7,445.75l7.352-10.337Z" transform="translate(454.807 118.824)" fill="#41a742"/>
    <path id="Path_101" data-name="Path 101" d="M311.07,435.912l-7.688,11.836-.654,2.914a1.618,1.618,0,1,0,3.07.961l2.444-3.105,2.079-9.263Z" transform="translate(455.126 116.826)" fill="#206b2e"/>
    <path id="Path_102" data-name="Path 102" d="M330.521,403.485v-.049q0-2.459-2.557-2.457H314.1l7.573-9.617h.006l2.666-3.387,5.143-6.532a.016.016,0,0,1,.006-.012l.132-.168a2.428,2.428,0,0,0-.213-3.215,1.886,1.886,0,0,0-.126-.149c-.029-.024-.041-.059-.071-.083a2.355,2.355,0,0,0-.591-.3c-.037-.013-.061-.038-.1-.05a2.419,2.419,0,0,0-1.145-.151H327l-.151.171a2.389,2.389,0,0,0-1.077.74l-7.948,10.1a2.366,2.366,0,0,0-.153.3l-10.308,13.137a2.187,2.187,0,0,0-.311.621c-.006.015-.014.025-.02.039a3.2,3.2,0,0,0-.158,1.014c0,.01,0,.015,0,.025v.024q0,2.459,2.557,2.457H323.3l-6,7.617a2.362,2.362,0,0,0-.37.315l-13.848,17.6a2.455,2.455,0,1,0,3.858,3.036l7.294-9.269.472-.538,15.333-19.54a2.205,2.205,0,0,0,.311-.621c0-.015.015-.026.019-.04a3.2,3.2,0,0,0,.156-1.018Z" transform="translate(455.163 134.964)" fill="#7bb94c"/>
  </g>
</svg>
